<svg width="500" height="500" viewBox="0 0 500 500" fill="none" xmlns="http://www.w3.org/2000/svg">
<path d="M340 132C340 108.131 330.518 85.2387 313.64 68.3604C296.761 51.4821 273.869 42 250 42C226.131 42 203.239 51.4821 186.36 68.3604C169.482 85.2387 160 108.131 160 132L196 132C196 117.678 201.689 103.943 211.816 93.8162C221.943 83.6893 235.678 78 250 78C264.322 78 278.057 83.6893 288.184 93.8162C298.311 103.943 304 117.678 304 132H340Z" fill="#C4C4C4"/>
<rect x="160" y="128" width="36" height="71" fill="#C4C4C4"/>
<rect x="304" y="132" width="36" height="71" fill="#C4C4C4"/>
<circle cx="250.5" cy="306.5" r="152.5" fill="white"/>
<circle cx="312.5" cy="292.5" r="0.5" fill="#4542F4" fill-opacity="0.32"/>
<circle cx="314.5" cy="298.5" r="0.5" fill="#4542F4" fill-opacity="0.32"/>
<circle cx="320.5" cy="288.5" r="0.5" fill="#4542F4" fill-opacity="0.32"/>
<circle cx="305.5" cy="302.5" r="0.5" fill="#4542F4" fill-opacity="0.32"/>
<circle cx="290.5" cy="287.5" r="0.5" fill="#4542F4" fill-opacity="0.32"/>
<circle cx="305" cy="326" r="1" fill="#4542F4" fill-opacity="0.32"/>
<circle cx="298.5" cy="316.5" r="1.5" fill="#4542F4" fill-opacity="0.32"/>
<path d="M363.979 392.102C355.423 393.422 346.669 392.403 338.645 389.153C330.621 385.903 323.625 380.544 318.398 373.643C313.172 366.741 309.909 358.555 308.955 349.95C308.001 341.346 309.393 332.643 312.982 324.765C316.57 316.887 322.223 310.125 329.341 305.198C336.459 300.27 344.777 297.359 353.414 296.773C362.052 296.187 370.687 297.948 378.405 301.87C386.123 305.791 392.637 311.727 397.257 319.048L380.903 329.368C378.144 324.996 374.255 321.451 369.646 319.11C365.037 316.768 359.881 315.717 354.723 316.067C349.566 316.416 344.599 318.155 340.348 321.097C336.098 324.04 332.723 328.077 330.58 332.781C328.437 337.486 327.606 342.682 328.175 347.82C328.745 352.958 330.693 357.847 333.814 361.968C336.935 366.089 341.113 369.289 345.904 371.229C350.696 373.17 355.923 373.778 361.032 372.99L363.979 392.102Z" fill="#4542F4" fill-opacity="0.32"/>
<path d="M132.5 215.5C157.5 231.5 202.8 279.6 184 344C165.2 408.4 241.167 431.833 281.5 435.5" stroke="#4542F4" stroke-opacity="0.32" stroke-width="16"/>
<circle cx="250.5" cy="306.5" r="139.5" stroke="#4542F4" stroke-width="26"/>
<circle cx="250.5" cy="260.5" r="38.5" fill="#4542F4"/>
<rect x="237" y="257" width="27" height="128" rx="13.5" fill="#4542F4"/>
<rect x="249.243" y="207.323" width="34" height="34" rx="6" transform="rotate(-45.0924 249.243 207.323)" stroke="#4542F4" stroke-opacity="0.32" stroke-width="6"/>
<rect x="233.828" y="174.271" width="20.3923" height="22.0988" rx="5" transform="rotate(-45.0924 233.828 174.271)" stroke="#4542F4" stroke-opacity="0.32" stroke-width="4"/>
<rect x="302.121" y="217.382" width="18.7228" height="18.7228" rx="3.5" transform="rotate(-45.0924 302.121 217.382)" stroke="#4542F4" stroke-opacity="0.32" stroke-width="3"/>
<rect x="288.414" y="228.694" width="11.6906" height="11.6906" rx="2" transform="rotate(-45.0924 288.414 228.694)" stroke="#4542F4" stroke-opacity="0.32" stroke-width="2"/>
<circle cx="317.934" cy="300.384" r="1.12941" transform="rotate(-15 317.934 300.384)" fill="#4542F4" fill-opacity="0.32"/>
<circle cx="310" cy="313" r="2" fill="#4542F4" fill-opacity="0.32"/>
<circle cx="331.5" cy="296.5" r="1.5" fill="#4542F4" fill-opacity="0.32"/>
<circle cx="320.5" cy="285.5" r="2.5" fill="#4542F4" fill-opacity="0.32"/>
<circle cx="302" cy="297" r="2" fill="#4542F4" fill-opacity="0.32"/>
<circle cx="300.5" cy="308.5" r="1.5" fill="#4542F4" fill-opacity="0.32"/>
<circle cx="338" cy="291" r="2" fill="#4542F4" fill-opacity="0.32"/>
</svg>
